#!OML:ASF I:\Actors\actors\Patient Classification 2\Patient 1\Session 1\actor1.ASF
:FULLY-SPECIFIED
:DEGREES
126
root -0.766832 18.6967 4.90115 0.35624 -1.01245 -2.66349
lowerback 8.61698 3.29558 1.18984
upperback 0.193342 4.48367 -0.412259
thorax -4.49759 2.18847 -1.64324
lowerneck -12.244 -4.04353 -3.07594
upperneck 21.7803 -6.10334 4.93414
head 9.09785 -2.58648 1.49499
rclavicle 2.77802e-014 0
rhumerus -8.29437 42.5288 -91.9732
rradius 91.2079
rwrist 12.9267
rhand -44.637 -23.4968
rfingers 7.12502
rthumb -17.4343 -52.735
lclavicle 2.77802e-014 0
lhumerus -28.8309 -43.4545 91.9442
lradius 91.7921
lwrist -1.05085
lhand -25.7586 -48.3428
lfingers 7.12502
lthumb 0.778915 -18.3645
rfemur 0 0 0
rtibia 0
rfoot 0 0
rtoes 0
lfemur -6.48003 -4.56164 -11.0197
ltibia 23.4646
lfoot -24.2941 13.2034
ltoes -55.4936
127
root -0.77462 18.6977 4.91867 0.440914 -0.82714 -2.24301
lowerback 8.08696 3.34132 0.471841
upperback 0.245454 4.47424 -0.369219
thorax -4.20522 2.20341 -1.16173
lowerneck -12.33 -4.12725 -3.29019
upperneck 21.9275 -6.17436 4.91354
head 9.17441 -2.63528 1.51361
rclavicle 7.29788e-014 -3.97569e-015
rhumerus -8.24686 43.1524 -91.8675
rradius 89.1623
rwrist 13.3957
rhand -45.0432 -29.3534
rfingers 7.12502
rthumb -17.8252 -58.5565
lclavicle 7.29788e-014 -3.97569e-015
lhumerus -28.6527 -43.4766 92.3974
lradius 90.1157
lwrist -0.429379
lhand -22.373 -41.0857
lfingers 7.12502
lthumb 4.0486 -11.1444
rfemur 0 0 0
rtibia 0
rfoot 0 0
rtoes 0
lfemur -6.59896 -4.43952 -11.4502
ltibia 23.4902
lfoot -24.441 12.9163
ltoes -55.3779
128
root -0.769244 18.6934 4.92587 0.391418 -0.637071 -2.15897
lowerback 7.84668 3.3218 0.426779
upperback 0.316842 4.44361 -0.367422
thorax -4.0007 2.19168 -1.1125
lowerneck -12.4689 -4.1899 -3.40157
upperneck 22.0764 -6.24924 4.94266
head 9.26046 -2.67137 1.53051
rclavicle -3.16813e-014 1.94809e-014
rhumerus -8.04702 44.0756 -91.6951
rradius 87.249
rwrist 10.9674
rhand -40.5761 -33.648
rfingers 7.12502
rthumb -13.5231 -63.1889
lclavicle -3.16813e-014 1.94809e-014
lhumerus -28.2079 -43.6072 92.4505
lradius 88.5557
lwrist 1.91399
lhand -15.8014 -33.1032
lfingers 7.12502
lthumb 10.3918 -3.37995
rfemur 0 0 0
rtibia 0
rfoot 0 0
rtoes 0
lfemur -6.63055 -4.33398 -11.5494
ltibia 23.5506
lfoot -24.3071 12.6843
ltoes -55.462
129
root -0.75691 18.6852 4.9281 0.233562 -0.500452 -2.23479
lowerback 7.8292 3.30667 0.703513
upperback 0.361936 4.44699 -0.391539
thorax -3.92102 2.18923 -1.28804
lowerneck -12.4927 -4.24215 -3.32273
upperneck 22.1666 -6.32786 4.8749
head 9.29508 -2.70677 1.48418
rclavicle -6.11014e-014 -4.37326e-015
rhumerus -7.89279 44.9571 -91.5874
rradius 85.6923
rwrist 6.57205
rhand -34.2538 -36.3575
rfingers 7.12502
rthumb -7.42459 -66.2072
lclavicle -6.11014e-014 -4.37326e-015
lhumerus -27.7568 -43.8781 92.3508
lradius 87.0881
lwrist 4.72693
lhand -7.35404 -25.6704
lfingers 7.12502
lthumb 18.5303 3.46705
rfemur 0 0 0
rtibia 0
rfoot 0 0
rtoes 0
lfemur -6.57578 -4.22813 -11.4872
ltibia 23.6547
lfoot -23.8752 12.4675
ltoes -55.5049
130
root -0.744619 18.6761 4.93061 0.0247887 -0.388689 -2.32008
lowerback 7.85938 3.31454 0.954723
upperback 0.399721 4.48027 -0.381733
thorax -3.87941 2.20205 -1.42119
lowerneck -12.4388 -4.28391 -3.19288
upperneck 22.2092 -6.37277 4.68631
head 9.29072 -2.73721 1.39359
rclavicle 5.71506e-014 7.15625e-015
rhumerus -7.72644 45.1281 -91.561
rradius 84.9148
rwrist -0.702343
rhand -23.413 -39.5467
rfingers 7.12502
rthumb 3.04429 -69.5048
lclavicle 5.71506e-014 7.15625e-015
lhumerus -27.5067 -44.4916 92.3481
lradius 85.4405
lwrist 6.1063
lhand -0.235679 -20.5638
lfingers 7.12502
lthumb 25.3646 7.76917
rfemur 0 0 0
rtibia 0
rfoot 0 0
rtoes 0
lfemur -6.52988 -4.21003 -11.4138
ltibia 23.8906
lfoot -23.1331 12.3538
ltoes -55.3322
131
root -0.730318 18.6668 4.93301 -0.162225 -0.290116 -2.4399
lowerback 7.87614 3.30179 1.1999
upperback 0.4743 4.4874 -0.316433
thorax -3.79762 2.2033 -1.48864
lowerneck -12.5808 -4.3051 -3.16145
upperneck 22.2826 -6.36973 4.5185
head 9.33571 -2.74743 1.32832
rclavicle -2.01021e-014 -3.18055e-015
rhumerus -7.4943 45.0411 -91.5351
rradius 84.1367
rwrist -6.99891
rhand -19.2067 -40.9223
rfingers 7.12502
rthumb 7.10563 -70.783
lclavicle -2.01021e-014 -3.18055e-015
lhumerus -27.5348 -45.6576 92.3914
lradius 83.6084
lwrist 4.35574
lhand 1.57405 -23.2183
lfingers 7.12502
lthumb 27.0972 4.85704
rfemur 0 0 0
rtibia 0
rfoot 0 0
rtoes 0
lfemur -6.57433 -4.18937 -11.304
ltibia 24.2149
lfoot -22.2186 12.386
ltoes -54.9928
132
root -0.71237 18.6572 4.93606 -0.273842 -0.197138 -2.55884
lowerback 7.8627 3.25133 1.46422
upperback 0.552677 4.44467 -0.268606
thorax -3.69385 2.18003 -1.57733
lowerneck -12.8371 -4.31838 -3.20998
upperneck 22.3373 -6.38361 4.55219
head 9.40656 -2.74905 1.34093
rclavicle 8.92046e-015 5.96354e-015
rhumerus -7.38905 45.6905 -91.2912
rradius 82.8526
rwrist -8.67816
rhand -22.2978 -37.4619
rfingers 7.12502
rthumb 4.12116 -67.4018
lclavicle 8.92046e-015 5.96354e-015
lhumerus -27.9291 -47.2515 92.4664
lradius 82.7407
lwrist 1.22262
lhand -0.634987 -25.1065
lfingers 7.12502
lthumb 24.982 3.28027
rfemur 0 0 0
rtibia 0
rfoot 0 0
rtoes 0
lfemur -6.74828 -4.08745 -11.2094
ltibia 24.6001
lfoot -21.4782 12.4486
ltoes -54.8278
133
root -0.695675 18.6488 4.9371 -0.344218 -0.0693033 -2.66376
lowerback 7.90539 3.19777 1.68278
upperback 0.595482 4.39358 -0.251249
thorax -3.66001 2.15208 -1.67646
lowerneck -12.995 -4.35006 -3.20997
upperneck 22.2448 -6.46365 4.72832
head 9.41408 -2.76594 1.38826
rclavicle 3.16565e-014 -1.47101e-014
rhumerus -7.39082 46.8301 -90.6538
rradius 82.7626
rwrist -4.19036
rhand -24.2275 -35.9591
rfingers 7.12502
rthumb 2.25768 -65.9269
lclavicle 3.16565e-014 -1.47101e-014
lhumerus -28.5101 -48.6864 92.5245
lradius 82.6217
lwrist -0.551938
lhand -2.681 -25.7768
lfingers 7.12502
lthumb 23.0201 2.86842
rfemur 0 0 0
rtibia 0
rfoot 0 0
rtoes 0
lfemur -6.99031 -3.92999 -11.1269
ltibia 25.027
lfoot -21.0788 12.3365
ltoes -55.0603
134
root -0.683482 18.6426 4.93802 -0.407363 0.0562796 -2.77335
lowerback 8.01867 3.16359 1.75974
upperback 0.616904 4.35926 -0.18482
thorax -3.70184 2.13364 -1.65374
lowerneck -13.1058 -4.40886 -3.2486
upperneck 22.0222 -6.57839 4.95331
head 9.3723 -2.79994 1.4553
rclavicle -1.31695e-014 0
rhumerus -7.45373 47.6684 -89.9049
rradius 83.5965
rwrist 1.1614
rhand -24.4425 -36.0895
rfingers 7.12502
rthumb 2.04998 -66.0594
lclavicle -1.31695e-014 0
lhumerus -29.2792 -49.6965 92.7413
lradius 83.0422
lwrist -0.49591
lhand -4.29297 -25.9083
lfingers 7.12502
lthumb 21.4726 2.92159
rfemur 0 0 0
rtibia 0
rfoot 0 0
rtoes 0
lfemur -7.21296 -3.74573 -11.0177
ltibia 25.4365
lfoot -20.9025 12.0887
ltoes -55.3703
135
root -0.674404 18.6382 4.94263 -0.455438 0.175382 -2.87567
lowerback 8.12641 3.12526 1.69777
upperback 0.61517 4.30931 -0.0686882
thorax -3.7793 2.1093 -1.50149
lowerneck -13.1256 -4.47184 -3.38711
upperneck 21.6966 -6.67726 5.20356
head 9.28172 -2.83578 1.55114
rclavicle 4.08999e-014 -2.38542e-015
rhumerus -7.79508 48.1657 -89.4834
rradius 84.8635
rwrist 4.10856
rhand -24.9219 -35.182
rfingers 7.12502
rthumb 1.58699 -65.1559
lclavicle 4.08999e-014 -2.38542e-015
lhumerus -30.1504 -50.2266 93.0958
lradius 83.6692
lwrist 0.471341
lhand -5.36847 -26.0741
lfingers 7.12502
lthumb 20.4393 2.87011
rfemur 0 0 0
rtibia 0
rfoot 0 0
rtoes 0
lfemur -7.38478 -3.62005 -10.9128
ltibia 25.7658
lfoot -20.7839 11.919
ltoes -55.5978
136
root -0.665963 18.6368 4.95073 -0.454953 0.270696 -2.8989
lowerback 8.14855 3.09942 1.55037
upperback 0.572082 4.26554 0.00523359
thorax -3.85438 2.08916 -1.34192
lowerneck -12.9311 -4.50967 -3.47893
upperneck 21.2466 -6.73455 5.39947
head 9.10305 -2.86087 1.62983
rclavicle -2.14439e-014 -1.59028e-014
rhumerus -8.36953 48.3253 -89.4456
rradius 86.3797
rwrist 4.73162
rhand -25.3096 -33.8702
rfingers 7.12502
rthumb 1.21256 -63.8465
lclavicle -2.14439e-014 -1.59028e-014
lhumerus -31.0473 -50.5558 93.4731
lradius 84.2685
lwrist 1.45529
lhand -6.03164 -26.3579
lfingers 7.12502
lthumb 19.8019 2.65339
rfemur 0 0 0
rtibia 0
rfoot 0 0
rtoes 0
lfemur -7.50651 -3.60543 -10.9106
ltibia 25.9767
lfoot -20.7233 11.9041
ltoes -55.7915
137
root -0.657049 18.6373 4.96094 -0.405671 0.260208 -2.86857
lowerback 8.04649 3.11086 1.3859
upperback 0.519132 4.26642 0.0406427
thorax -3.86704 2.09231 -1.2099
lowerneck -12.6959 -4.51864 -3.45332
upperneck 20.845 -6.74001 5.42234
head 8.92137 -2.87082 1.63729
rclavicle -3.03147e-015 6.95746e-015
rhumerus -8.88725 48.3109 -89.5836
rradius 87.8646
rwrist 4.17717
rhand -25.4951 -32.7955
rfingers 7.12502
rthumb 1.03338 -62.7728
lclavicle -3.03147e-015 6.95746e-015
lhumerus -31.8455 -50.8549 93.7841
lradius 84.7605
lwrist 2.13655
lhand -6.57339 -26.6437
lfingers 7.12502
lthumb 19.2811 2.42051
rfemur 0 0 0
rtibia 0
rfoot 0 0
rtoes 0
lfemur -7.54633 -3.59196 -10.9653
ltibia 26.0623
lfoot -20.8166 11.8557
ltoes -55.6829
